<svg width="100" height="125" viewBox="0 0 100 125" fill="none" xmlns="http://www.w3.org/2000/svg">
<path d="M77.4 1.69997C76.4 2.19997 75.8 3.29997 76.1 4.29997C78.1 13.2 76.5 17.9 74.4 19.2C73.9 19.5 73.5 19.5 73.3 19.5V17C73.3 13.2 70.3 10.1 66.5 9.89995C55.4 7.29995 44.5 7.29995 33.8 9.89995C30 9.99995 27 13.2 27 17V19.5C26.7 19.5 26.1 19.4 25.3 18.8C24.2 17.9 20.9 14.1 23.2 3.49996C23.4 2.39996 22.9 1.29997 21.9 0.799974C20.8 0.299974 19.6 0.699968 18.9 1.69997C11.9 12.3 9.59999 21.2 12.2 27.8C13.5 31 15.9 33.5 19.3 35.2C20.7 35.9 21.5 37.2999 21.3 38.8999C20.9 42.1999 20.6 45.5 20.4 48.5C20.3 49.7 20.2 50.8 20.1 51.8C19.6 57.4 22.6 62.7 25.8 68.2C28.1 72.2 30.5 76.4 31.5 80.7C31.5 82.6 32.1 85 33.9 87.1C34.3 94.7 40.1 99.1 50.1 99.1C60 99.1 65.8 94.7 66.3 87.1C68.1 85 68.6 82.7 68.7 80.8C69.6 76.5 72 72.3 74.4 68.2C77.6 62.7 80.6 57.4 80.1 51.8C80 50.8 79.9 49.7 79.8 48.5C79.6 45.5 79.3 42.2 78.9 38.8C78.7 37.4 79.5 35.9 80.8 35.3C84.1 33.8 86.4 31.5 87.6 28.5C90 22.3 87.6 13.7 80.4 2.79997C79.7 1.59997 78.5 1.19997 77.4 1.69997ZM50.2 94.8C44.3 94.8 40.5 93.2 38.9 90.1C41.6 91.2 45.2 91.8999 50.2 91.8999C55.1 91.8999 58.8 91.2 61.5 90.1C59.8 93.2 56.1 94.8 50.2 94.8ZM40.6 75.7C41.4 74.7 42.8 74.7 43.7 75.6C44.3 76.3 44.9 77.0999 45.3 77.8999C45.9 78.9999 45.3 80.4 44.1 80.8C43.2 81.1 42.2 80.6999 41.8 79.8999C41.5 79.2999 41.1 78.8 40.7 78.3C40 77.5 40 76.4 40.6 75.7ZM55.1 77.8C55.5 77 56.1 76.2 56.7 75.5C57.5 74.6 59 74.6 59.8 75.6C60.4 76.3 60.4 77.4 59.7 78.1C59.2 78.6 58.9 79.1 58.6 79.7C58.2 80.5 57.2 80.9 56.3 80.6C55.1 80.3 54.5 79 55.1 77.8ZM71 65.8999C70.4 66.9999 69.7 68.1 69.1 69.3C68.1 71 65.9 71.4 64.3 70.1C62.3 68.4 59.7 67.2 56.4 66.6L44.8 66.3999C41.1 66.9999 38.1 68.2 35.9 70.1C34.4 71.4 32.1 71 31.2 69.2C30.6 68.1 29.9 66.9999 29.3 65.8999C26.4 60.8999 23.7 56.1999 24.1 51.8999C24.2 50.8999 24.3 49.7 24.4 48.6C25.1 40 26.3 25.6 31 22.1L30.9 21.9H31V17C31 15.3 32.4 13.9 34.1 13.9H34.3L34.5 13.8C44.6 11.3 55.1 11.3 65.7 13.8L65.9 13.9H66.1C67.8 13.9 69.2 15.3 69.2 17V21.9H69.3L69.2 22.1C73.9 25.6 75.1 40 75.8 48.6C75.9 49.8 76 50.8999 76.1 51.8999C76.6 56.2999 73.9 60.9999 71 65.8999Z" fill="black"/>
<path d="M68.1 26.7C67.1 26.2 65.9 26.6 65.4 27.6L64.1 30.1C63.5 31.2 62.1 31.5 61.1 30.8L58 28.5C57.3 28 56.3 28 55.6 28.5L51.2 31.7C50.5 32.2 49.5 32.2 48.8 31.7L44.6 28.5C43.9 28 42.9 27.9 42.2 28.5L39.1 30.8C38.1 31.5 36.7 31.2 36.1 30.1L34.8 27.6C34.3 26.6 33.1 26.2 32.1 26.7C31.1 27.2 30.7 28.4 31.2 29.4L34.6 36C35.2 37.1 36.6 37.4 37.6 36.7L42.1 33.4C42.8 32.9 43.8 32.9 44.5 33.4L48.7 36.6C49.4 37.1 50.4 37.2 51.1 36.6L55.6 33.3C56.3 32.8 57.2 32.8 58 33.3L62.6 36.6C63.6 37.3 65 37 65.6 35.9L69 29.3C69.4 28.4 69 27.2 68.1 26.7Z" fill="black"/>
<path d="M32.3 42.7C30 42.7 28.1 44.5999 28.1 46.8999C28.1 49.1999 30 51.0999 32.3 51.0999C34.6 51.0999 36.5 49.1999 36.5 46.8999C36.5 44.5999 34.6 42.7 32.3 42.7Z" fill="black"/>
<path d="M68.1 42.7C65.8 42.7 63.9 44.5999 63.9 46.8999C63.9 49.1999 65.8 51.0999 68.1 51.0999C70.4 51.0999 72.3 49.1999 72.3 46.8999C72.3 44.5999 70.4 42.7 68.1 42.7Z" fill="black"/>
</svg>
